<?xml version="1.0" encoding="UTF-8"?>
<svg width="16px" height="20px" viewBox="0 0 16 20" version="1.1" xmlns="http://www.w3.org/2000/svg" xmlns:xlink="http://www.w3.org/1999/xlink">
    <!-- Generator: Sketch 52.5 (67469) - http://www.bohemiancoding.com/sketch -->
    <title>icon_folder</title>
    <desc>Created with Sketch.</desc>
    <g id="UI" stroke="none" stroke-width="1" fill="none" fill-rule="evenodd">
        <g id="Documentations" transform="translate(-56.000000, -391.000000)" fill="#000000" fill-rule="nonzero">
            <g id="icon_folder" transform="translate(56.000000, 391.000000)">
                <path d="M11.6923077,9.84937344 L4.3076923,9.84937344 C3.968,9.84937344 3.6923077,10.1250658 3.6923077,10.4647581 C3.6923077,10.8050658 3.968,11.0801426 4.3076923,11.0801426 L11.6923077,11.0801426 C12.032,11.0801426 12.3076923,10.8050658 12.3076923,10.4647581 C12.3076923,10.1250658 12.032,9.84937344 11.6923077,9.84937344 Z M11.6923077,13.5416811 L4.3076923,13.5416811 C3.968,13.5416811 3.6923077,13.8167581 3.6923077,14.1570658 C3.6923077,14.4973734 3.968,14.7724503 4.3076923,14.7724503 L11.6923077,14.7724503 C12.032,14.7724503 12.3076923,14.4973734 12.3076923,14.1570658 C12.3076923,13.8167581 12.032,13.5416811 11.6923077,13.5416811 Z M12.3076923,4.92629651 C11.6283077,4.92629651 11.076923,4.3749119 11.076923,3.69552728 L11.076923,1.23398882 L14.7692308,4.92629651 L12.3076923,4.92629651 Z M14.7692308,17.2339888 C14.7692308,17.9133734 14.2178462,18.4647581 13.5384615,18.4647581 L2.46153846,18.4647581 C1.78215385,18.4647581 1.23076923,17.9133734 1.23076923,17.2339888 L1.23076923,2.46475805 C1.23076923,1.78537344 1.78215385,1.23398882 2.46153846,1.23398882 L9.82892304,1.23398882 C9.81784616,2.70783498 9.84615384,3.69552728 9.84615384,3.69552728 C9.84615384,5.0549119 10.9483077,6.15706574 12.3076923,6.15706574 L14.7692308,6.15706574 L14.7692308,17.2339888 Z M11.076923,0.0032195901 L11.076923,0.0204503594 C10.9981538,0.0204503594 10.6695385,-0.0097034868 9.84615384,0.0032195901 L2.46153846,0.0032195901 C1.10215385,0.0032195901 0,1.10537344 0,2.46475805 L0,17.2339888 C0,18.5933734 1.10215385,19.6955273 2.46153846,19.6955273 L13.5384615,19.6955273 C14.8978462,19.6955273 16,18.5933734 16,17.2339888 L16,4.92629651 L11.076923,0.0032195901 Z" id="Fill-222"></path>
            </g>
        </g>
    </g>
</svg>