<?xml version="1.0" encoding="UTF-8"?>
<svg width="20px" height="25px" viewBox="0 0 20 25" version="1.1" xmlns="http://www.w3.org/2000/svg" xmlns:xlink="http://www.w3.org/1999/xlink">
    <!-- Generator: Sketch 52.5 (67469) - http://www.bohemiancoding.com/sketch -->
    <title>Fill 222</title>
    <desc>Created with Sketch.</desc>
    <g id="UI" stroke="none" stroke-width="1" fill="none" fill-rule="evenodd">
        <g id="Documentations" transform="translate(-53.000000, -235.000000)" fill="#000000">
            <g id="Group-10" transform="translate(53.000000, 235.000000)">
                <path d="M14.6153846,12.3117168 L5.38461538,12.3117168 C4.96,12.3117168 4.61538462,12.6563322 4.61538462,13.0809476 C4.61538462,13.5063322 4.96,13.8501783 5.38461538,13.8501783 L14.6153846,13.8501783 C15.04,13.8501783 15.3846154,13.5063322 15.3846154,13.0809476 C15.3846154,12.6563322 15.04,12.3117168 14.6153846,12.3117168 L14.6153846,12.3117168 Z M14.6153846,16.9271014 L5.38461538,16.9271014 C4.96,16.9271014 4.61538462,17.2709476 4.61538462,17.6963322 C4.61538462,18.1217168 4.96,18.4655629 5.38461538,18.4655629 L14.6153846,18.4655629 C15.04,18.4655629 15.3846154,18.1217168 15.3846154,17.6963322 C15.3846154,17.2709476 15.04,16.9271014 14.6153846,16.9271014 L14.6153846,16.9271014 Z M15.3846154,6.15787064 C14.5353846,6.15787064 13.8461538,5.46863987 13.8461538,4.6194091 L13.8461538,1.54248603 L18.4615385,6.15787064 L15.3846154,6.15787064 L15.3846154,6.15787064 Z M18.4615385,21.542486 C18.4615385,22.3917168 17.7723077,23.0809476 16.9230769,23.0809476 L3.07692308,23.0809476 C2.22769231,23.0809476 1.53846154,22.3917168 1.53846154,21.542486 L1.53846154,3.08094756 C1.53846154,2.2317168 2.22769231,1.54248603 3.07692308,1.54248603 L12.2861538,1.54248603 C12.2723077,3.38479372 12.3076923,4.6194091 12.3076923,4.6194091 C12.3076923,6.31863987 13.6853846,7.69633218 15.3846154,7.69633218 L18.4615385,7.69633218 L18.4615385,21.542486 L18.4615385,21.542486 Z M13.8461538,0.00402448762 L13.8461538,0.0255629492 C13.7476923,0.0255629492 13.3369231,-0.0121293585 12.3076923,0.00402448762 L3.07692308,0.00402448762 C1.37769231,0.00402448762 0,1.3817168 0,3.08094756 L0,21.542486 C0,23.2417168 1.37769231,24.6194091 3.07692308,24.6194091 L16.9230769,24.6194091 C18.6223077,24.6194091 20,23.2417168 20,21.542486 L20,6.15787064 L13.8461538,0.00402448762 L13.8461538,0.00402448762 Z" id="Fill-222"></path>
            </g>
        </g>
    </g>
</svg>