<?xml version="1.0" encoding="UTF-8"?>
<svg width="30px" height="30px" viewBox="0 0 30 30" version="1.1" xmlns="http://www.w3.org/2000/svg" xmlns:xlink="http://www.w3.org/1999/xlink">
    <!-- Generator: Sketch 52.5 (67469) - http://www.bohemiancoding.com/sketch -->
    <title>Fill 109</title>
    <desc>Created with Sketch.</desc>
    <g id="UI" stroke="none" stroke-width="1" fill="none" fill-rule="evenodd">
        <g id="Documentations" transform="translate(-30.000000, -191.000000)" fill="#000000">
            <path d="M38.4375,194.75 C37.92,194.75 37.5,195.17 37.5,195.6875 C37.5,196.205938 37.92,196.625 38.4375,196.625 C38.955,196.625 39.375,196.205938 39.375,195.6875 C39.375,195.17 38.955,194.75 38.4375,194.75 L38.4375,194.75 Z M42.1875,194.75 C41.67,194.75 41.25,195.17 41.25,195.6875 C41.25,196.205938 41.67,196.625 42.1875,196.625 C42.705,196.625 43.125,196.205938 43.125,195.6875 C43.125,195.17 42.705,194.75 42.1875,194.75 L42.1875,194.75 Z M58.125,198.5 L31.875,198.5 L31.875,194.75 C31.875,193.715 32.715,192.875 33.75,192.875 L56.25,192.875 C57.285,192.875 58.125,193.715 58.125,194.75 L58.125,198.5 L58.125,198.5 Z M58.125,217.25 C58.125,218.285 57.285,219.125 56.25,219.125 L33.75,219.125 C32.715,219.125 31.875,218.285 31.875,217.25 L31.875,200.375 L58.125,200.375 L58.125,217.25 L58.125,217.25 Z M56.25,191 L33.75,191 C31.6790625,191 30,192.679062 30,194.75 L30,217.25 C30,219.320937 31.6790625,221 33.75,221 L56.25,221 C58.3209375,221 60,219.320937 60,217.25 L60,194.75 C60,192.679062 58.3209375,191 56.25,191 L56.25,191 Z M34.6875,194.75 C34.17,194.75 33.75,195.17 33.75,195.6875 C33.75,196.205938 34.17,196.625 34.6875,196.625 C35.205,196.625 35.625,196.205938 35.625,195.6875 C35.625,195.17 35.205,194.75 34.6875,194.75 L34.6875,194.75 Z" id="Fill-109"></path>
        </g>
    </g>
</svg>