<?xml version="1.0" encoding="UTF-8"?>
<svg width="20px" height="20px" viewBox="0 0 20 20" version="1.1" xmlns="http://www.w3.org/2000/svg" xmlns:xlink="http://www.w3.org/1999/xlink">
    <!-- Generator: Sketch 52.5 (67469) - http://www.bohemiancoding.com/sketch -->
    <title>icon_browser</title>
    <desc>Created with Sketch.</desc>
    <g id="UI" stroke="none" stroke-width="1" fill="none" fill-rule="evenodd">
        <g id="Documentations" transform="translate(-83.000000, -391.000000)" fill="#000000" fill-rule="nonzero">
            <g id="icon_browser" transform="translate(83.000000, 391.000000)">
                <path d="M5.625,2.5 C5.28,2.5 5,2.78 5,3.125 C5,3.47062533 5.28,3.75 5.625,3.75 C5.97,3.75 6.25,3.47062533 6.25,3.125 C6.25,2.78 5.97,2.5 5.625,2.5 Z M8.125,2.5 C7.78,2.5 7.5,2.78 7.5,3.125 C7.5,3.47062533 7.78,3.75 8.125,3.75 C8.47,3.75 8.75,3.47062533 8.75,3.125 C8.75,2.78 8.47,2.5 8.125,2.5 Z M18.75,5 L1.25,5 L1.25,2.5 C1.25,1.81 1.81,1.25 2.5,1.25 L17.5,1.25 C18.19,1.25 18.75,1.81 18.75,2.5 L18.75,5 Z M18.75,17.5 C18.75,18.19 18.19,18.75 17.5,18.75 L2.5,18.75 C1.81,18.75 1.25,18.19 1.25,17.5 L1.25,6.25 L18.75,6.25 L18.75,17.5 Z M17.5,0 L2.5,0 C1.119375,0 0,1.11937467 0,2.5 L0,17.5 C0,18.8806247 1.119375,20 2.5,20 L17.5,20 C18.880625,20 20,18.8806247 20,17.5 L20,2.5 C20,1.11937467 18.880625,0 17.5,0 Z M3.125,2.5 C2.78,2.5 2.5,2.78 2.5,3.125 C2.5,3.47062533 2.78,3.75 3.125,3.75 C3.47,3.75 3.75,3.47062533 3.75,3.125 C3.75,2.78 3.47,2.5 3.125,2.5 Z" id="Fill-109"></path>
            </g>
        </g>
    </g>
</svg>